<mxfile host="app.diagrams.net" agent="Mozilla/5.0 (Macintosh; Intel Mac OS X 10_15_7) AppleWebKit/537.36 (KHTML, like Gecko) Chrome/138.0.0.0 Safari/537.36" version="28.0.6">
  <diagram id="C5RBs43oDa-KdzZeNtuy" name="Page-1">
    <mxGraphModel dx="1148" dy="781" grid="1" gridSize="10" guides="1" tooltips="1" connect="1" arrows="1" fold="1" page="1" pageScale="1" pageWidth="827" pageHeight="1169" math="0" shadow="0">
      <root>
        <mxCell id="WIyWlLk6GJQsqaUBKTNV-0" />
        <mxCell id="WIyWlLk6GJQsqaUBKTNV-1" parent="WIyWlLk6GJQsqaUBKTNV-0" />
        <mxCell id="1zuo3nVVa_92IQAOkYGR-15" value="" style="verticalLabelPosition=bottom;verticalAlign=top;html=1;shape=mxgraph.basic.rect;fillColor2=none;strokeWidth=1;size=20;indent=5;fillColor=none;dashed=1;" vertex="1" parent="WIyWlLk6GJQsqaUBKTNV-1">
          <mxGeometry x="119" y="766.5" width="254" height="213.5" as="geometry" />
        </mxCell>
        <mxCell id="1zuo3nVVa_92IQAOkYGR-17" value="" style="verticalLabelPosition=bottom;verticalAlign=top;html=1;shape=mxgraph.basic.rect;fillColor2=none;strokeWidth=1;size=20;indent=5;fillColor=none;dashed=1;" vertex="1" parent="WIyWlLk6GJQsqaUBKTNV-1">
          <mxGeometry x="380" y="765.5" width="500" height="214.5" as="geometry" />
        </mxCell>
        <mxCell id="GDznzDBXAoQfcr5qJHFp-208" value="" style="group" parent="WIyWlLk6GJQsqaUBKTNV-1" vertex="1" connectable="0">
          <mxGeometry x="120" y="800" width="125.45000000000005" height="45" as="geometry" />
        </mxCell>
        <mxCell id="GDznzDBXAoQfcr5qJHFp-209" value="" style="verticalLabelPosition=bottom;verticalAlign=top;html=1;shape=card;whiteSpace=wrap;size=20;arcSize=12;" parent="GDznzDBXAoQfcr5qJHFp-208" vertex="1">
          <mxGeometry x="10.454545454545453" width="109.0909090909091" height="40" as="geometry" />
        </mxCell>
        <mxCell id="GDznzDBXAoQfcr5qJHFp-210" value="&lt;font face=&quot;Times New Roman&quot;&gt;&amp;nbsp;Input Aspect&lt;/font&gt;" style="text;strokeColor=none;align=center;fillColor=none;html=1;verticalAlign=middle;whiteSpace=wrap;rounded=0;" parent="GDznzDBXAoQfcr5qJHFp-208" vertex="1">
          <mxGeometry x="10" y="4" width="104" height="26" as="geometry" />
        </mxCell>
        <mxCell id="GDznzDBXAoQfcr5qJHFp-212" value="" style="group" parent="WIyWlLk6GJQsqaUBKTNV-1" vertex="1" connectable="0">
          <mxGeometry x="315" y="800" width="125.45000000000005" height="45" as="geometry" />
        </mxCell>
        <mxCell id="GDznzDBXAoQfcr5qJHFp-213" value="" style="verticalLabelPosition=bottom;verticalAlign=top;html=1;shape=card;whiteSpace=wrap;size=20;arcSize=12;" parent="GDznzDBXAoQfcr5qJHFp-212" vertex="1">
          <mxGeometry x="5.454545454545454" width="109.0909090909091" height="40" as="geometry" />
        </mxCell>
        <mxCell id="GDznzDBXAoQfcr5qJHFp-214" value="&lt;font face=&quot;Times New Roman&quot;&gt;&amp;nbsp;Input Sentiment&lt;/font&gt;" style="text;strokeColor=none;align=center;fillColor=none;html=1;verticalAlign=middle;whiteSpace=wrap;rounded=0;" parent="GDznzDBXAoQfcr5qJHFp-212" vertex="1">
          <mxGeometry x="10" y="4" width="104" height="26" as="geometry" />
        </mxCell>
        <mxCell id="GDznzDBXAoQfcr5qJHFp-216" value="" style="group" parent="WIyWlLk6GJQsqaUBKTNV-1" vertex="1" connectable="0">
          <mxGeometry x="315" y="907" width="125.45000000000005" height="45" as="geometry" />
        </mxCell>
        <mxCell id="GDznzDBXAoQfcr5qJHFp-217" value="" style="verticalLabelPosition=bottom;verticalAlign=top;html=1;shape=card;whiteSpace=wrap;size=20;arcSize=12;" parent="GDznzDBXAoQfcr5qJHFp-216" vertex="1">
          <mxGeometry x="5.454545454545454" width="109.0909090909091" height="40" as="geometry" />
        </mxCell>
        <mxCell id="GDznzDBXAoQfcr5qJHFp-218" value="&lt;font face=&quot;Times New Roman&quot;&gt;&amp;nbsp;Input Expanded Aspect&lt;/font&gt;" style="text;strokeColor=none;align=center;fillColor=none;html=1;verticalAlign=middle;whiteSpace=wrap;rounded=0;" parent="GDznzDBXAoQfcr5qJHFp-216" vertex="1">
          <mxGeometry x="10" y="4" width="104" height="26" as="geometry" />
        </mxCell>
        <mxCell id="GDznzDBXAoQfcr5qJHFp-231" value="" style="endArrow=classic;html=1;rounded=0;entryX=0;entryY=0;entryDx=0;entryDy=20;entryPerimeter=0;exitX=1;exitY=0.5;exitDx=0;exitDy=0;" parent="WIyWlLk6GJQsqaUBKTNV-1" source="1zuo3nVVa_92IQAOkYGR-3" target="GDznzDBXAoQfcr5qJHFp-217" edge="1">
          <mxGeometry relative="1" as="geometry">
            <mxPoint x="270" y="955" as="sourcePoint" />
            <mxPoint x="293.73" y="1014" as="targetPoint" />
          </mxGeometry>
        </mxCell>
        <mxCell id="GDznzDBXAoQfcr5qJHFp-232" value="&lt;font face=&quot;Times New Roman&quot;&gt;Generate&lt;/font&gt;" style="edgeLabel;resizable=0;html=1;;align=center;verticalAlign=middle;" parent="GDznzDBXAoQfcr5qJHFp-231" connectable="0" vertex="1">
          <mxGeometry relative="1" as="geometry">
            <mxPoint y="-3" as="offset" />
          </mxGeometry>
        </mxCell>
        <mxCell id="GDznzDBXAoQfcr5qJHFp-235" value="" style="endArrow=classic;html=1;rounded=0;exitX=0.5;exitY=1;exitDx=0;exitDy=0;exitPerimeter=0;" parent="WIyWlLk6GJQsqaUBKTNV-1" source="GDznzDBXAoQfcr5qJHFp-209" edge="1">
          <mxGeometry width="50" height="50" relative="1" as="geometry">
            <mxPoint x="170" y="950" as="sourcePoint" />
            <mxPoint x="185" y="900" as="targetPoint" />
          </mxGeometry>
        </mxCell>
        <mxCell id="GDznzDBXAoQfcr5qJHFp-236" value="" style="strokeWidth=1;html=1;shape=mxgraph.flowchart.annotation_2;align=left;labelPosition=right;pointerEvents=1;rotation=-180;" parent="WIyWlLk6GJQsqaUBKTNV-1" vertex="1">
          <mxGeometry x="430.5" y="820" width="51.5" height="110" as="geometry" />
        </mxCell>
        <mxCell id="GDznzDBXAoQfcr5qJHFp-238" value="" style="endArrow=classic;html=1;rounded=0;entryX=0;entryY=0.5;entryDx=0;entryDy=0;entryPerimeter=0;exitX=0.499;exitY=0.499;exitDx=0;exitDy=0;exitPerimeter=0;" parent="WIyWlLk6GJQsqaUBKTNV-1" source="GDznzDBXAoQfcr5qJHFp-236" target="GDznzDBXAoQfcr5qJHFp-236" edge="1">
          <mxGeometry width="50" height="50" relative="1" as="geometry">
            <mxPoint x="440.45" y="837" as="sourcePoint" />
            <mxPoint x="427.95" y="887" as="targetPoint" />
          </mxGeometry>
        </mxCell>
        <mxCell id="GDznzDBXAoQfcr5qJHFp-240" value="&lt;font face=&quot;Times New Roman&quot;&gt;Synthetic Dataset&lt;/font&gt;" style="shape=datastore;whiteSpace=wrap;html=1;" parent="WIyWlLk6GJQsqaUBKTNV-1" vertex="1">
          <mxGeometry x="620" y="912" width="110" height="60" as="geometry" />
        </mxCell>
        <mxCell id="GDznzDBXAoQfcr5qJHFp-242" value="&lt;font face=&quot;Times New Roman&quot;&gt;High Quality Synthetic Dataset&lt;/font&gt;" style="shape=datastore;whiteSpace=wrap;html=1;" parent="WIyWlLk6GJQsqaUBKTNV-1" vertex="1">
          <mxGeometry x="620" y="773" width="110" height="60" as="geometry" />
        </mxCell>
        <mxCell id="GDznzDBXAoQfcr5qJHFp-253" value="" style="endArrow=classic;html=1;rounded=0;entryX=0.5;entryY=1;entryDx=0;entryDy=0;" parent="WIyWlLk6GJQsqaUBKTNV-1" edge="1">
          <mxGeometry width="50" height="50" relative="1" as="geometry">
            <mxPoint x="730" y="950" as="sourcePoint" />
            <mxPoint x="812" y="903" as="targetPoint" />
            <Array as="points">
              <mxPoint x="812" y="950" />
            </Array>
          </mxGeometry>
        </mxCell>
        <mxCell id="GDznzDBXAoQfcr5qJHFp-254" value="" style="endArrow=classic;html=1;rounded=0;exitX=0.5;exitY=0;exitDx=0;exitDy=0;" parent="WIyWlLk6GJQsqaUBKTNV-1" edge="1">
          <mxGeometry width="50" height="50" relative="1" as="geometry">
            <mxPoint x="812" y="853" as="sourcePoint" />
            <mxPoint x="730" y="802" as="targetPoint" />
            <Array as="points">
              <mxPoint x="812" y="802" />
            </Array>
          </mxGeometry>
        </mxCell>
        <mxCell id="GDznzDBXAoQfcr5qJHFp-256" value="&lt;font face=&quot;Times New Roman&quot;&gt;Passed&amp;nbsp;&lt;/font&gt;&lt;div&gt;&lt;font face=&quot;Times New Roman&quot;&gt;Triplets&lt;/font&gt;&lt;/div&gt;" style="edgeLabel;html=1;align=center;verticalAlign=middle;resizable=0;points=[];" parent="GDznzDBXAoQfcr5qJHFp-254" vertex="1" connectable="0">
          <mxGeometry x="0.3934" y="-2" relative="1" as="geometry">
            <mxPoint x="3" as="offset" />
          </mxGeometry>
        </mxCell>
        <mxCell id="GDznzDBXAoQfcr5qJHFp-255" value="" style="endArrow=classic;html=1;rounded=0;exitX=0.002;exitY=0.477;exitDx=0;exitDy=0;exitPerimeter=0;" parent="WIyWlLk6GJQsqaUBKTNV-1" source="GDznzDBXAoQfcr5qJHFp-242" edge="1">
          <mxGeometry width="50" height="50" relative="1" as="geometry">
            <mxPoint x="650" y="802.0000000000001" as="sourcePoint" />
            <mxPoint x="537" y="849" as="targetPoint" />
            <Array as="points">
              <mxPoint x="550" y="802" />
              <mxPoint x="537" y="802" />
            </Array>
          </mxGeometry>
        </mxCell>
        <mxCell id="GDznzDBXAoQfcr5qJHFp-263" value="&lt;font face=&quot;Times New Roman&quot;&gt;Select&amp;nbsp;&lt;/font&gt;&lt;span style=&quot;font-family: &amp;quot;Times New Roman&amp;quot;; background-color: light-dark(#ffffff, var(--ge-dark-color, #121212)); color: light-dark(rgb(0, 0, 0), rgb(255, 255, 255));&quot;&gt;ICL&lt;/span&gt;&lt;div&gt;&lt;span style=&quot;font-family: &amp;quot;Times New Roman&amp;quot;; background-color: light-dark(#ffffff, var(--ge-dark-color, #121212)); color: light-dark(rgb(0, 0, 0), rgb(255, 255, 255));&quot;&gt;&amp;nbsp;Examples&lt;/span&gt;&lt;/div&gt;" style="edgeLabel;html=1;align=center;verticalAlign=middle;resizable=0;points=[];" parent="GDznzDBXAoQfcr5qJHFp-255" vertex="1" connectable="0">
          <mxGeometry x="-0.2632" y="-1" relative="1" as="geometry">
            <mxPoint x="5" as="offset" />
          </mxGeometry>
        </mxCell>
        <mxCell id="GDznzDBXAoQfcr5qJHFp-266" value="&lt;font face=&quot;Times New Roman&quot; style=&quot;font-size: 11px;&quot;&gt;Sample&lt;/font&gt;" style="text;strokeColor=none;align=center;fillColor=default;html=1;verticalAlign=middle;whiteSpace=wrap;rounded=0;" parent="WIyWlLk6GJQsqaUBKTNV-1" vertex="1">
          <mxGeometry x="436" y="909" width="40.5" height="9" as="geometry" />
        </mxCell>
        <mxCell id="1zuo3nVVa_92IQAOkYGR-1" value="" style="group" vertex="1" connectable="0" parent="WIyWlLk6GJQsqaUBKTNV-1">
          <mxGeometry x="130" y="902" width="108" height="50" as="geometry" />
        </mxCell>
        <mxCell id="1zuo3nVVa_92IQAOkYGR-2" value="" style="rounded=0;whiteSpace=wrap;html=1;" vertex="1" parent="1zuo3nVVa_92IQAOkYGR-1">
          <mxGeometry width="108" height="50" as="geometry" />
        </mxCell>
        <mxCell id="1zuo3nVVa_92IQAOkYGR-3" value="&lt;font style=&quot;font-size: 13px;&quot; face=&quot;Times New Roman&quot;&gt;LLM&lt;/font&gt;" style="text;strokeColor=none;align=center;fillColor=none;html=1;verticalAlign=middle;whiteSpace=wrap;rounded=0;" vertex="1" parent="1zuo3nVVa_92IQAOkYGR-1">
          <mxGeometry x="0.5111999999999852" y="3.5714285714285716" width="106.9704" height="42.85714285714286" as="geometry" />
        </mxCell>
        <mxCell id="1zuo3nVVa_92IQAOkYGR-5" value="" style="group" vertex="1" connectable="0" parent="WIyWlLk6GJQsqaUBKTNV-1">
          <mxGeometry x="483" y="850" width="108" height="50" as="geometry" />
        </mxCell>
        <mxCell id="1zuo3nVVa_92IQAOkYGR-6" value="" style="rounded=0;whiteSpace=wrap;html=1;" vertex="1" parent="1zuo3nVVa_92IQAOkYGR-5">
          <mxGeometry width="108" height="50" as="geometry" />
        </mxCell>
        <mxCell id="1zuo3nVVa_92IQAOkYGR-7" value="&lt;font style=&quot;font-size: 13px;&quot; face=&quot;Times New Roman&quot;&gt;LLM&lt;/font&gt;" style="text;strokeColor=none;align=center;fillColor=none;html=1;verticalAlign=middle;whiteSpace=wrap;rounded=0;" vertex="1" parent="1zuo3nVVa_92IQAOkYGR-5">
          <mxGeometry x="0.5111999999999852" y="3.5714285714285716" width="106.9704" height="42.85714285714286" as="geometry" />
        </mxCell>
        <mxCell id="1zuo3nVVa_92IQAOkYGR-8" value="" style="endArrow=classic;html=1;rounded=0;exitX=0.5;exitY=1;exitDx=0;exitDy=0;entryX=-0.014;entryY=0.625;entryDx=0;entryDy=0;entryPerimeter=0;" edge="1" parent="WIyWlLk6GJQsqaUBKTNV-1" target="GDznzDBXAoQfcr5qJHFp-240">
          <mxGeometry width="50" height="50" relative="1" as="geometry">
            <mxPoint x="536.9963999999998" y="899.4285714285713" as="sourcePoint" />
            <mxPoint x="620" y="953" as="targetPoint" />
            <Array as="points">
              <mxPoint x="537" y="950" />
            </Array>
          </mxGeometry>
        </mxCell>
        <mxCell id="1zuo3nVVa_92IQAOkYGR-9" value="&lt;font face=&quot;Times New Roman&quot;&gt;Generate&lt;/font&gt;" style="edgeLabel;html=1;align=center;verticalAlign=middle;resizable=0;points=[];" vertex="1" connectable="0" parent="1zuo3nVVa_92IQAOkYGR-8">
          <mxGeometry x="0.271" y="-2" relative="1" as="geometry">
            <mxPoint as="offset" />
          </mxGeometry>
        </mxCell>
        <mxCell id="1zuo3nVVa_92IQAOkYGR-11" value="" style="group" vertex="1" connectable="0" parent="WIyWlLk6GJQsqaUBKTNV-1">
          <mxGeometry x="760" y="850" width="108" height="50" as="geometry" />
        </mxCell>
        <mxCell id="1zuo3nVVa_92IQAOkYGR-12" value="" style="rounded=0;whiteSpace=wrap;html=1;" vertex="1" parent="1zuo3nVVa_92IQAOkYGR-11">
          <mxGeometry width="108" height="50" as="geometry" />
        </mxCell>
        <mxCell id="1zuo3nVVa_92IQAOkYGR-13" value="&lt;font style=&quot;font-size: 13px;&quot; face=&quot;Times New Roman&quot;&gt;QFP&lt;/font&gt;" style="text;strokeColor=none;align=center;fillColor=none;html=1;verticalAlign=middle;whiteSpace=wrap;rounded=0;" vertex="1" parent="1zuo3nVVa_92IQAOkYGR-11">
          <mxGeometry x="0.5111999999999852" y="3.5714285714285716" width="106.9704" height="42.85714285714286" as="geometry" />
        </mxCell>
        <mxCell id="1zuo3nVVa_92IQAOkYGR-18" value="&lt;font face=&quot;Times New Roman&quot; style=&quot;background-color: light-dark(#ffffff, var(--ge-dark-color, #121212));&quot;&gt;&lt;b&gt;IDG&lt;/b&gt;&lt;/font&gt;" style="text;html=1;align=center;verticalAlign=middle;resizable=0;points=[];autosize=1;strokeColor=none;fillColor=default;fontSize=13;" vertex="1" parent="WIyWlLk6GJQsqaUBKTNV-1">
          <mxGeometry x="384.5" y="751.5" width="50" height="30" as="geometry" />
        </mxCell>
        <mxCell id="1zuo3nVVa_92IQAOkYGR-16" value="&lt;font face=&quot;Times New Roman&quot; style=&quot;background-color: light-dark(#ffffff, var(--ge-dark-color, #121212));&quot;&gt;&lt;b&gt;AX&lt;/b&gt;&lt;/font&gt;" style="text;html=1;align=center;verticalAlign=middle;resizable=0;points=[];autosize=1;strokeColor=none;fillColor=default;fontSize=13;" vertex="1" parent="WIyWlLk6GJQsqaUBKTNV-1">
          <mxGeometry x="123" y="751.5" width="40" height="30" as="geometry" />
        </mxCell>
      </root>
    </mxGraphModel>
  </diagram>
</mxfile>
